<svg xmlns="http://www.w3.org/2000/svg" width="80" height="68" viewBox="0 0 80 68">
    <g fill="#5F5860" fill-rule="evenodd">
        <path d="M67.358 22.214C66.67 10.47 56.99 1.09 45.324 1.09c-7.081 0-13.933 3.471-18.188 9.138-.095-.05-.198-.081-.292-.134-.261-.12-.524-.24-.79-.348-.153-.06-.3-.11-.453-.167-.267-.09-.528-.17-.802-.248-.153-.039-.3-.083-.458-.115a7.765 7.765 0 0 0-.891-.158 3.403 3.403 0 0 0-.397-.064 12.411 12.411 0 0 0-1.31-.077c-6.47 0-11.737 5.266-11.737 11.737 0 .166.005.33.018.497C4.6 24.105.874 30.3.874 36.505c0 9.24 7.513 16.754 16.754 16.754h6.718a1.307 1.307 0 0 0 0-2.612h-6.718c-7.801 0-14.143-6.341-14.143-14.142 0-5.42 3.528-11.044 8.386-13.373l.739-.35v-.823c0-.16.013-.324.02-.49l.012-.23-.013-.241c-.006-.114-.02-.23-.02-.344 0-5.031 4.096-9.133 9.134-9.133.4 0 .802.039 1.196.09.103.013.198.032.3.044.35.065.695.135 1.032.236.044.013.088.02.134.033a9.518 9.518 0 0 1 1.363.546c.311.16.623.332.922.523 2.51 1.63 4.177 4.45 4.177 7.66 0 .72.587 1.306 1.306 1.306.72 0 1.306-.586 1.306-1.305 0-3.592-1.624-6.808-4.172-8.96 3.738-4.891 9.897-7.992 16.017-7.992 10.1 0 18.493 7.998 19.366 18.11-1.332-.095-3.33-.146-5.324.16a1.308 1.308 0 0 0-1.096 1.49 1.312 1.312 0 0 0 1.293 1.108c.064 0 .127-.007.197-.018 2.897-.44 5.923-.026 6.107 0 6.076 1.152 10.648 6.742 10.648 13.022 0 7.21-5.864 13.073-13.073 13.073h-5.185c-.719 0-1.305.587-1.305 1.306 0 .72.586 1.306 1.305 1.306h5.185c8.648 0 15.684-7.036 15.684-15.685 0-7.158-4.991-13.583-11.768-15.36z"/>
        <path d="M42.229 35.383a1.271 1.271 0 0 0-.428-.28 1.28 1.28 0 0 0-.992 0 1.24 1.24 0 0 0-.428.28l-10.43 10.432a1.304 1.304 0 0 0 0 1.846 1.294 1.294 0 0 0 1.84 0L40 39.452v26.85c0 .718.585 1.305 1.306 1.305.719 0 1.306-.587 1.306-1.306V39.452l8.202 8.209a1.301 1.301 0 0 0 1.847 0 1.307 1.307 0 0 0 0-1.846L42.229 35.383z"/>
    </g>
</svg>
