<svg style="position: absolute; width: 0; height: 0; overflow: hidden;" version="1.1" xmlns="http://www.w3.org/2000/svg" xmlns:xlink="http://www.w3.org/1999/xlink">
	<defs>
		<symbol id="ico-angle-down" viewBox="0 0 55 32">
			<title>angle-down</title>
			<path
				fill="#fff"
				d="M55.093 4.619c-0.088 0.517-0.323 0.968-0.661 1.321l-25.731 25.731c-0.219 0.21-0.516 0.339-0.844 0.339-0.051 0-0.102-0.003-0.152-0.009-0.654 0.001-0.984 0.001-1.314-0.329l-25.732-25.732c-0.336-0.352-0.572-0.803-0.658-1.305 0.008-0.55 0.263-1.024 0.654-1.332l2.643-2.642c0.31-0.395 0.784-0.649 1.318-0.66 0.519 0.088 0.97 0.323 1.322 0.661l21.772 21.772 21.773-21.773c0-0.33 0.66-0.66 0.99-0.66 0.517 0.088 0.968 0.323 1.321 0.661l2.638 2.638c0.66 0.33 0.66 0.66 0.66 1.32z"></path>
		</symbol>
		<symbol id="ico-arrow-right" viewBox="0 0 51 32">
			<title>arrow-right</title>
			<path d="M51.2 15.992c-0.025-0.633-0.266-1.206-0.651-1.651l-12.797-13.597c-0.872-0.752-2.552-1.104-3.504-0.2-0.444 0.45-0.718 1.069-0.718 1.752s0.274 1.302 0.718 1.752l9.024 9.544h-40.872c-1.325 0-2.4 1.075-2.4 2.4s1.075 2.4 2.4 2.4h40.872l-9 9.552c-0.411 0.464-0.662 1.079-0.662 1.752s0.251 1.288 0.665 1.755c0.447 0.339 1.015 0.545 1.632 0.545 0.725 0 1.384-0.285 1.871-0.749l12.799-13.599c0.387-0.412 0.625-0.969 0.625-1.581 0-0.026-0-0.053-0.001-0.079z"></path>
		</symbol>
		<symbol id="ico-case" viewBox="0 0 39 32">
			<title>case</title>
			<path
				fill="#ced1e5"
				d="M35.896 20.676h-12.977v0.776c0 0.857-0.695 1.552-1.552 1.552h-3.679c-0.857 0-1.552-0.695-1.552-1.552v-0.776h-13.031c-0.001 0-0.002 0-0.003 0-0.845 0-1.645-0.195-2.357-0.542l0.032 8.753c0 1.715 1.39 3.105 3.105 3.105h31.232c1.715 0 3.105-1.39 3.105-3.105v-8.739c-0.679 0.332-1.477 0.527-2.32 0.528z"></path>
			<path
				fill="#ced1e5"
				d="M35.764 4.975h-7.451c-0.467-2.826-2.885-4.958-5.804-4.975h-5.994c-2.93 0.005-5.36 2.141-5.824 4.941l-7.456 0.034c-0.016-0-0.036-0-0.055-0-1.73 0-3.138 1.381-3.181 3.101l-0 7.168c0 1.715 1.39 3.105 3.105 3.105h13v-1.669c0-0.857 0.695-1.552 1.552-1.552h3.648c0.857 0 1.552 0.695 1.552 1.552v1.638h13.039c1.715 0 3.105-1.39 3.105-3.105v-7.133c-0.043-1.724-1.451-3.105-3.181-3.105-0.019 0-0.039 0-0.058 0.001zM13.675 4.975c0.403-1.207 1.522-2.061 2.84-2.064h5.992c1.319 0.003 2.437 0.858 2.834 2.043z"></path>
			<path fill="#ced1e5" d="M18.34 16.547h2.344c0.562 0 1.017 0.455 1.017 1.017v3.073c0 0.562-0.455 1.017-1.017 1.017h-2.344c-0.562 0-1.017-0.455-1.017-1.017v-3.073c0-0.562 0.455-1.017 1.017-1.017z"></path>
		</symbol>
		<symbol id="ico-cc-amex" viewBox="0 0 48 32">
			<title>cc-amex</title>
			<path
				fill="#adbbf3"
				d="M2.49 11.58h1.868l-0.996-2.241zM15.44 22.537l1.494-1.619-1.494-1.619h-3.362v0.996h2.988v1.121h-2.988v1.121zM18.677 20.918l2.117 2.241v-4.483zM24.778 19.922c0-0.498-0.249-0.747-0.872-0.747h-1.743v1.494h1.743c0.498 0 0.872-0.249 0.872-0.747zM30.755 19.798c0-0.374-0.249-0.623-0.872-0.623h-1.743v1.245h1.743c0.623 0.125 0.872-0.125 0.872-0.623zM24.903 10.086c0-0.374-0.249-0.623-0.872-0.623h-1.619v1.245h1.743c0.498 0 0.747-0.124 0.747-0.623zM34.49 11.58h1.868l-0.872-2.241zM14.568 8.342v5.603h-1.37v-4.358l-1.992 4.358h-1.245l-1.868-4.358v4.358h-2.739l-0.498-1.245h-2.864l-0.498 1.245h-1.494l2.49-5.603h1.992l2.241 5.354v-5.354h2.241l1.743 3.86 1.619-3.86zM26.148 19.922c0.003 0.036 0.005 0.078 0.005 0.121 0 0.226-0.048 0.441-0.133 0.636-0.121 0.239-0.121 0.363-0.245 0.488-0.14 0.151-0.304 0.276-0.488 0.369-0.259 0.129-0.383 0.129-0.508 0.254-0.168 0.047-0.379 0.090-0.594 0.121l-1.897 0.003v1.743h-2.615l-1.619-1.868-1.992 1.868h-5.23v-5.603h5.354l1.619 1.868 1.743-1.868h4.358q2.241 0 2.241 1.868zM20.047 12.825v1.121h-4.482v-5.603h4.482v1.245h-3.113v0.996h3.113v1.121h-3.113v1.121zM48.062 24.405v4.732c-0.002 0.764-0.285 1.462-0.75 1.996-0.507 0.513-1.208 0.841-1.984 0.868l-42.589 0c-0.008 0-0.017 0-0.027 0-0.778 0-1.479-0.335-1.964-0.87-0.466-0.504-0.75-1.178-0.75-1.918 0-0.027 0-0.054 0.001-0.081l-0-14.066h2.366l0.498-1.245h1.121l0.498 1.245h4.483v-0.996l0.374 0.996h2.366l0.374-0.996v0.996h11.331v-2.117h0.249c0.132 0.012 0.237 0.117 0.249 0.248l0 1.744h5.852v-0.498l1.121 0.374c0.309 0.080 0.664 0.126 1.029 0.126 0.032 0 0.064-0 0.096-0.001l2.486 0 0.498-1.245h1.121l0.498 1.245h4.732v-1.245l0.747 1.245h3.735v-7.72h-3.735v0.872l-0.498-0.872h-3.86v0.872l-0.498-0.872h-5.23c-0.105-0.010-0.226-0.016-0.349-0.016-0.697 0-1.35 0.191-1.909 0.524l0.017-0.508h-3.611v0.498c-0.415-0.301-0.932-0.485-1.491-0.498l-13.077-0-0.996 1.992-0.872-1.992h-4.109v0.872l-0.498-0.872h-3.486l-1.619 3.735v-8.218c0.002-0.764 0.285-1.462 0.75-1.996 0.527-0.459 1.225-0.741 1.989-0.743h42.584c0.008-0 0.017-0 0.027-0 0.778 0 1.479 0.335 1.964 0.87 0.466 0.504 0.75 1.178 0.75 1.918 0 0.027-0 0.054-0.001 0.081l0 14.191h-2.49c-0.057-0.004-0.123-0.007-0.191-0.007-0.584 0-1.123 0.189-1.56 0.51l0.007-0.503h-3.735c-0.072-0.009-0.155-0.014-0.239-0.014-0.528 0-1.012 0.194-1.383 0.514l0.003-0.5h-6.599v0.374c-0.502-0.314-1.111-0.5-1.764-0.5-0.037 0-0.073 0.001-0.11 0.002l-4.353-0v0.498c-0.502-0.314-1.111-0.5-1.764-0.5-0.037 0-0.073 0.001-0.11 0.002l-4.851-0-1.121 1.245-0.996-1.245h-7.222v7.844h7.097l1.121-1.245 1.121 1.245h4.358v-1.868h0.498c0.042 0.001 0.092 0.002 0.142 0.002 0.615 0 1.209-0.092 1.768-0.262l-0.043 2.128h3.611v-2.117h0.374v2.117h11.082c0.060 0.004 0.131 0.007 0.202 0.007 0.621 0 1.198-0.189 1.676-0.512l-0.011 0.505h3.486c0.063 0.003 0.138 0.005 0.213 0.005 0.644 0 1.256-0.139 1.807-0.39zM32.249 19.549c-0.008 0.323-0.1 0.622-0.254 0.88-0.151 0.29-0.415 0.513-0.734 0.612 0.305 0.063 0.569 0.245 0.736 0.496 0.16 0.277 0.252 0.605 0.252 0.954 0 0.016-0 0.033-0.001 0.049l0 1.118h-1.37v-0.996c0.004-0.035 0.006-0.076 0.006-0.117 0-0.285-0.096-0.548-0.257-0.757-0.243-0.156-0.543-0.251-0.865-0.251-0.045 0-0.090 0.002-0.135 0.006l-1.488-0v2.117h-1.37v-5.603h3.237c0.040-0.002 0.087-0.003 0.135-0.003 0.544 0 1.055 0.139 1.5 0.385 0.357 0.116 0.607 0.49 0.607 1.113zM26.397 9.837c-0.008 0.322-0.1 0.622-0.254 0.88-0.151 0.29-0.415 0.513-0.734 0.612 0.305 0.063 0.569 0.245 0.736 0.496 0.090 0.229 0.141 0.489 0.141 0.761 0 0.085-0.005 0.168-0.014 0.25l0.001 1.111h-1.37v-0.996c0.002-0.017 0.003-0.036 0.003-0.055 0-0.124-0.049-0.236-0.128-0.319 0-0.124-0.124-0.249-0.124-0.373-0.083-0.079-0.195-0.128-0.319-0.128-0.019 0-0.039 0.001-0.057 0.004-0.166-0.047-0.377-0.091-0.591-0.121l-1.274-0.003v1.992h-1.37v-5.603h3.237c0.579 0.002 1.135 0.093 1.658 0.26 0.275 0.231 0.475 0.606 0.475 1.029 0 0.073-0.006 0.144-0.017 0.213zM37.479 22.537v1.121h-4.483v-5.603h4.483v1.121h-3.113v0.996h3.113v1.121h-3.113v1.121zM28.638 8.342v5.603h-1.37v-5.603zM43.082 21.914c0 1.245-0.747 1.743-2.117 1.743h-2.615v-1.245h2.615c0.498 0 0.747-0.125 0.747-0.498s-0.124-0.374-0.374-0.498c-0.204-0.085-0.441-0.134-0.689-0.134-0.064 0-0.128 0.003-0.191 0.010-0.041 0.002-0.098 0.004-0.156 0.004-0.297 0-0.583-0.047-0.851-0.135-0.322-0.090-0.616-0.262-0.853-0.493-0.234-0.266-0.378-0.617-0.378-1.002 0-0.041 0.002-0.082 0.005-0.123-0.005-0.039-0.008-0.090-0.008-0.142 0-0.438 0.195-0.831 0.504-1.096 0.383-0.283 0.853-0.464 1.363-0.499l2.747-0v1.245h-2.49c-0.498 0-0.747 0.125-0.747 0.498-0.002 0.012-0.002 0.026-0.002 0.040 0 0.186 0.151 0.336 0.336 0.336 0.014 0 0.028-0.001 0.041-0.003 0.247 0 0.496 0.125 0.87 0.125h0.996c0.359 0.039 0.668 0.224 0.869 0.495 0.239 0.353 0.379 0.784 0.379 1.247 0 0.044-0.001 0.088-0.004 0.131zM48.062 20.918v2.117c-0.402 0.465-0.993 0.758-1.652 0.758-0.076 0-0.151-0.004-0.225-0.012l-2.605 0.001v-1.245h2.615c0.498 0 0.747-0.125 0.747-0.498 0-0.125-0.124-0.374-0.249-0.374-0.138-0.085-0.305-0.135-0.484-0.135-0.049 0-0.097 0.004-0.144 0.011l-0.866-0.001c-0.249 0-0.623-0.125-0.872-0.125-0.261-0.097-0.475-0.27-0.62-0.493-0.152-0.295-0.243-0.636-0.252-0.998-0.005-0.047-0.008-0.098-0.008-0.15 0-0.438 0.195-0.831 0.504-1.096 0.383-0.283 0.853-0.464 1.363-0.499l2.747-0v1.245h-2.49c-0.498 0-0.747 0.125-0.747 0.498s0.249 0.374 0.623 0.498c0.331 0.084 0.711 0.132 1.103 0.132 0.094 0 0.187-0.003 0.279-0.008 0.61-0.124 0.983 0.001 1.232 0.374zM44.576 8.342v5.603h-1.868l-2.49-4.233v4.233h-2.864l-0.498-1.245h-2.739l-0.498 1.245h-1.619c-0.079 0.009-0.17 0.014-0.263 0.014-1.375 0-2.49-1.115-2.49-2.49 0-0.093 0.005-0.184 0.015-0.274-0.001-1.857 0.871-2.853 2.738-2.853h1.37v1.245h-1.743c-0.249 0-0.374 0.124-0.498 0.124-0.066 0.065-0.11 0.151-0.124 0.247-0.149 0.119-0.245 0.298-0.249 0.5 0 0.25-0.125 0.374-0.125 0.748 0.012 0.451 0.103 0.877 0.258 1.27 0.218 0.208 0.534 0.352 0.885 0.352 0.036 0 0.072-0.002 0.107-0.005l0.618 0 1.868-4.482h1.992l2.241 5.354v-5.354h2.117l2.366 3.86v-3.86z"></path>
		</symbol>
		<symbol id="ico-cc-discover" viewBox="0 0 48 32">
			<title>cc-discover</title>
			<path
				fill="#adbbf3"
				d="M6.475 13.572c0.001 0.018 0.001 0.039 0.001 0.061 0 0.667-0.288 1.266-0.746 1.681-0.429 0.325-0.969 0.519-1.555 0.519-0.111 0-0.22-0.007-0.328-0.021l-0.236 0.001v-4.607h0.374c0.054-0.004 0.117-0.006 0.181-0.006 0.647 0 1.238 0.238 1.69 0.632 0.384 0.434 0.621 1.013 0.621 1.646 0 0.033-0.001 0.066-0.002 0.099zM43.58 12.202c0 0.747-0.498 1.121-1.37 1.121h-0.374v-2.117h0.374c0.872 0 1.37 0.249 1.37 0.996zM7.969 13.572c0-0.016 0-0.036 0-0.055 0-0.949-0.38-1.809-0.997-2.436-0.665-0.62-1.56-1.001-2.545-1.001-0.068 0-0.136 0.002-0.204 0.005l-1.983-0v6.973h1.992c0.052 0.002 0.113 0.004 0.174 0.004 0.87 0 1.675-0.282 2.327-0.759 0.699-0.699 1.161-1.655 1.233-2.718zM8.591 16.934h1.37v-6.848h-1.37zM15.191 14.942c0.003-0.037 0.004-0.080 0.004-0.123 0-0.424-0.142-0.814-0.381-1.126-0.453-0.376-0.992-0.674-1.582-0.858-0.374-0.125-0.662-0.252-0.937-0.398-0.049-0.135-0.096-0.315-0.096-0.506 0-0.035 0.002-0.070 0.005-0.105 0.004-0.198 0.1-0.377 0.247-0.493 0.185-0.157 0.424-0.252 0.686-0.252 0.022 0 0.044 0.001 0.066 0.002 0.452 0.058 0.844 0.287 1.115 0.619l0.625-0.993c-0.502-0.464-1.176-0.748-1.916-0.748-0.027 0-0.054 0-0.081 0.001-0.048-0.005-0.108-0.008-0.169-0.008-0.509 0-0.973 0.192-1.323 0.507-0.383 0.334-0.625 0.824-0.625 1.372 0 0.043 0.001 0.085 0.004 0.127-0.003 0.030-0.005 0.071-0.005 0.112 0 0.385 0.143 0.737 0.38 1.005 0.388 0.313 0.843 0.567 1.337 0.736 0.529 0.134 0.903 0.383 1.027 0.383 0.228 0.131 0.38 0.373 0.38 0.651 0 0.034-0.002 0.068-0.007 0.1-0.028 0.276-0.117 0.529-0.253 0.751-0.159 0.151-0.382 0.249-0.628 0.249-0.040 0-0.080-0.003-0.119-0.008-0.010 0.001-0.028 0.001-0.046 0.001-0.623 0-1.165-0.35-1.44-0.864l-0.876 0.863c0.492 0.812 1.364 1.351 2.363 1.37 0.008 0 0.014 0 0.020 0 0.658 0 1.261-0.235 1.73-0.626 0.262-0.503 0.44-1.095 0.493-1.723zM21.043 16.809v-1.619c-0.397 0.452-0.974 0.738-1.617 0.747-0.007 0-0.014 0-0.021 0-0.618 0-1.18-0.237-1.601-0.624-0.386-0.435-0.623-1.014-0.623-1.648 0-0.033 0.001-0.066 0.002-0.099 0.018-0.657 0.249-1.261 0.627-1.745 0.392-0.445 0.969-0.732 1.612-0.74 0.681 0.031 1.29 0.31 1.746 0.748l-0.001-1.495c-0.552-0.221-1.192-0.357-1.861-0.373-1.011 0.009-1.926 0.385-2.626 1-0.686 0.655-1.116 1.583-1.116 2.611s0.43 1.956 1.119 2.613c0.627 0.62 1.487 1.002 2.436 1.002 0.063 0 0.126-0.002 0.189-0.005 0.623-0.004 1.222-0.141 1.762-0.384zM46.693 29.385v-10.957c-0.872 0.498-1.868 1.121-2.988 1.743s-2.739 1.37-4.981 2.49c-1.805 0.911-4.066 1.878-6.387 2.718-2.827 1.017-5.69 2.013-9.177 3.010s-6.973 1.743-10.459 2.49h32.747c0.38-0.012 0.726-0.151 0.999-0.376 0.118-0.325 0.206-0.705 0.245-1.099zM29.012 13.572c0.001-0.029 0.001-0.063 0.001-0.097 0-0.998-0.432-1.896-1.119-2.515-0.658-0.693-1.582-1.123-2.607-1.123-0.004 0-0.008 0-0.011 0-0.028-0.001-0.062-0.001-0.096-0.001-0.998 0-1.896 0.432-2.515 1.119-0.693 0.658-1.123 1.582-1.123 2.607 0 0.004 0 0.008 0 0.011-0.001 0.028-0.001 0.062-0.001 0.096 0 0.998 0.432 1.896 1.119 2.515 0.689 0.65 1.6 1.066 2.607 1.123 0.040 0.001 0.074 0.002 0.108 0.002 0.998 0 1.896-0.432 2.515-1.119 0.693-0.658 1.123-1.582 1.123-2.607 0-0.004 0-0.008-0-0.011zM32.124 17.183l2.988-7.097h-1.494l-1.868 4.732-1.868-4.732h-1.494l2.988 7.097zM35.735 16.934h3.86v-1.121h-2.49v-1.868h2.366v-1.121h-2.366v-1.619h2.49v-1.245h-3.86zM43.829 16.934h1.619l-2.241-2.864c0.923-0.143 1.622-0.932 1.622-1.884 0-0.038-0.001-0.076-0.003-0.114 0 0.001 0-0.005 0-0.010 0-0.579-0.238-1.103-0.622-1.478-0.428-0.323-0.968-0.518-1.553-0.518-0.111 0-0.22 0.007-0.328 0.021l-1.979-0.001v6.973h1.37v-2.739h0.249zM48.062 2.739v26.397c0.001 0.023 0.001 0.050 0.001 0.077 0 0.74-0.284 1.414-0.75 1.917-0.509 0.515-1.209 0.843-1.986 0.87l-42.589 0c-0.008 0-0.017 0-0.027 0-0.778 0-1.479-0.335-1.964-0.87-0.466-0.504-0.75-1.178-0.75-1.918 0-0.027 0-0.054 0.001-0.081l-0-26.393c-0.001-0.023-0.001-0.050-0.001-0.077 0-0.74 0.284-1.414 0.75-1.917 0.529-0.461 1.226-0.743 1.99-0.745h42.584c0.008-0 0.017-0 0.027-0 0.778 0 1.479 0.335 1.964 0.87 0.464 0.455 0.751 1.085 0.751 1.782 0 0.031-0.001 0.062-0.002 0.092z"></path>
		</symbol>
		<symbol id="ico-cc-mastercard" viewBox="0 0 48 32">
			<title>cc-mastercard</title>
			<path
				fill="#adbbf3"
				d="M23.375 4.5c-1.657-1.094-3.689-1.747-5.874-1.75-0.047-0.001-0.102-0.001-0.157-0.001-1.44 0-2.805 0.323-4.026 0.901-1.241 0.521-2.357 1.237-3.328 2.11-0.938 0.926-1.699 2.049-2.215 3.299-0.578 1.205-0.902 2.544-0.902 3.958 0 0.082 0.001 0.164 0.003 0.246-0.002 0.058-0.003 0.139-0.003 0.222 0 1.414 0.324 2.753 0.902 3.945 0.585 1.24 1.337 2.353 2.235 3.331 0.927 0.939 2.050 1.701 3.3 2.216 1.283 0.541 2.695 0.859 4.176 0.899 2.201-0.003 4.234-0.655 5.931-1.775-1.799-1.357-3.111-3.235-3.77-5.398-0.318-1.070-0.489-2.21-0.489-3.39s0.171-2.32 0.49-3.397c0.674-2.149 1.982-4.023 3.706-5.398zM24.125 5c-1.703 1.307-2.973 3.103-3.606 5.177-0.317 1.008-0.488 2.083-0.488 3.198s0.171 2.19 0.489 3.2c0.631 2.071 1.901 3.867 3.58 5.157 1.728-1.289 2.998-3.085 3.63-5.159 0.317-1.008 0.488-2.083 0.488-3.198s-0.171-2.19-0.489-3.2c-0.631-2.071-1.901-3.867-3.58-5.157zM24.75 4.5c1.72 1.414 3.021 3.28 3.726 5.417 0.351 1.073 0.539 2.212 0.539 3.396s-0.189 2.323-0.537 3.39c-0.624 2.177-1.944 4.064-3.703 5.404 1.632 1.113 3.664 1.765 5.849 1.769 0.070 0.002 0.152 0.003 0.234 0.003 1.414 0 2.753-0.324 3.945-0.902 1.24-0.585 2.353-1.337 3.331-2.235 0.939-0.927 1.7-2.050 2.216-3.3 0.578-1.23 0.901-2.595 0.901-4.035 0-0.055-0-0.11-0.001-0.165 0-0.015 0-0.041 0-0.068 0-1.467-0.322-2.859-0.9-4.109-0.583-1.234-1.336-2.346-2.234-3.324-0.936-0.925-2.056-1.684-3.297-2.214-1.258-0.579-2.65-0.902-4.118-0.902-0.027 0-0.054 0-0.081 0-2.198 0.007-4.236 0.708-5.902 1.896zM40.25 19.625v0l0.125-0.125h-0.375v0.125h0.25l-0.125 0.375h0.125zM40.875 19.875v0l0.125-0.375h-0.125l-0.125 0.25-0.125-0.25h-0.125v0.375h0.125v-0.375l0.125 0.25 0.125 0.125zM40.75 29.375v0-0.375h-0.25v0.25h0.25v0.125zM14.375 27.875c0.010-0.483 0.403-0.87 0.887-0.87 0.238 0 0.454 0.093 0.613 0.246 0.153 0.163 0.247 0.383 0.247 0.625s-0.094 0.462-0.248 0.625c-0.127 0.156-0.319 0.255-0.535 0.255-0.032 0-0.063-0.002-0.093-0.006-0.238-0.004-0.457-0.098-0.622-0.25-0.249-0.124-0.249-0.374-0.249-0.624zM24.25 27c0.369 0.010 0.674 0.272 0.749 0.62l-1.499 0.005c0.076-0.353 0.381-0.615 0.749-0.625zM31.625 27.875c0.007-0.478 0.396-0.862 0.875-0.862 0.483 0 0.875 0.392 0.875 0.875 0 0.238-0.095 0.455-0.25 0.612-0.125 0.25-0.375 0.25-0.625 0.25-0.008 0-0.016 0-0.025 0-0.469 0-0.85-0.381-0.85-0.85 0-0.009 0-0.018 0-0.027zM37.375 27.875c0.007-0.478 0.396-0.862 0.875-0.862 0.483 0 0.875 0.392 0.875 0.875 0 0.238-0.095 0.455-0.25 0.612-0.125 0.25-0.375 0.25-0.625 0.25-0.008 0-0.016 0-0.025 0-0.469 0-0.85-0.381-0.85-0.85 0-0.009 0-0.018 0-0.027zM40.625 29.375v0c-0.125 0-0.125 0-0.125-0.125v-0.5h0.375v0.375c0 0.25-0.125 0.25-0.25 0.25zM12.5 29.375h0.625v-1.875c0.001-0.019 0.002-0.041 0.002-0.063 0-0.263-0.095-0.503-0.253-0.688-0.249-0.248-0.499-0.248-0.874-0.373-0.037-0.005-0.079-0.007-0.122-0.007-0.373 0-0.699 0.202-0.875 0.503-0.181-0.301-0.507-0.503-0.88-0.503-0.043 0-0.086 0.003-0.127 0.008-0.004-0.001-0.015-0.001-0.026-0.001-0.335 0-0.635 0.144-0.844 0.374l-0.001-0.374h-0.5v2.875h0.625v-1.625c-0.004-0.028-0.007-0.061-0.007-0.094 0-0.366 0.297-0.663 0.662-0.663 0.033 0 0.066 0.002 0.098 0.007 0.371-0 0.621 0.25 0.621 0.75v1.625h0.625v-1.625c-0.004-0.028-0.007-0.061-0.007-0.094 0-0.366 0.297-0.663 0.662-0.663 0.033 0 0.066 0.002 0.098 0.007 0.371-0 0.621 0.25 0.621 0.75v1.75zM16 29.375h0.625v-2.75h-0.625v0.375c-0.209-0.231-0.51-0.375-0.844-0.375-0.011 0-0.021 0-0.032 0-0.009-0-0.022-0-0.035-0-0.372 0-0.711 0.143-0.965 0.376-0.231 0.179-0.379 0.458-0.379 0.772 0 0.036 0.002 0.072 0.006 0.107 0.010 0.419 0.149 0.808 0.379 1.127 0.249 0.227 0.588 0.37 0.96 0.37 0.013 0 0.025-0 0.038-0 0.029 0.003 0.064 0.005 0.1 0.005 0.314 0 0.593-0.148 0.771-0.378zM19.75 28.5c0-0.5-0.375-0.75-1-0.875h-0.25c-0.375 0-0.5-0.125-0.5-0.25s0.125-0.375 0.5-0.375c0.324 0.008 0.624 0.1 0.883 0.255l0.242-0.505c-0.256-0.166-0.568-0.265-0.904-0.265-0.078 0-0.155 0.005-0.23 0.016-0.315 0.007-0.616 0.099-0.875 0.254-0.216 0.112-0.367 0.342-0.367 0.608 0 0.004 0 0.009 0 0.013 0 0.499 0.375 0.749 1 0.874h0.25c0.375 0 0.5 0.125 0.5 0.25s-0.25 0.375-0.625 0.375c-0.367-0.026-0.707-0.115-1.018-0.258l-0.232 0.508c0.336 0.235 0.753 0.376 1.202 0.376 0.017 0 0.033-0 0.050-0.001 0.364-0.009 0.706-0.1 1.011-0.256 0.201-0.178 0.342-0.443 0.362-0.741zM22.5 29.125l-0.125-0.5c-0.168 0.080-0.365 0.126-0.572 0.126-0.019 0-0.037-0-0.055-0.001-0.247 0-0.372-0.125-0.372-0.5v-1.25h1v-0.625h-1v-0.875h-0.625v0.875h-0.625v0.625h0.625v1.25c0 0.75 0.375 1 1 1 0.076 0.026 0.164 0.040 0.255 0.040 0.187 0 0.359-0.062 0.497-0.167zM24.25 26.375c-0.011-0-0.023-0-0.036-0-0.372 0-0.711 0.143-0.965 0.376-0.235 0.266-0.379 0.619-0.379 1.006 0 0.042 0.002 0.083 0.005 0.124-0.001 0.007-0.001 0.022-0.001 0.036 0 0.411 0.141 0.788 0.378 1.087 0.189 0.236 0.481 0.389 0.81 0.389 0.066 0 0.131-0.006 0.194-0.018 0.029 0.004 0.070 0.006 0.112 0.006 0.387 0 0.74-0.144 1.008-0.381l-0.252-0.499c-0.209 0.231-0.51 0.375-0.844 0.375-0.011 0-0.021-0-0.032-0-0.014 0.001-0.033 0.002-0.052 0.002-0.43 0-0.783-0.329-0.822-0.748l2.125-0.003v-0.25c0-0.012 0-0.027 0-0.042 0-0.411-0.141-0.788-0.378-1.087-0.247-0.371-0.497-0.371-0.872-0.371zM27.625 26.375c-0.029-0.004-0.063-0.006-0.097-0.006-0.279 0-0.522 0.152-0.651 0.378l-0.002-0.371h-0.625v2.875h0.625v-1.625c0-0.5 0.25-0.75 0.625-0.75 0.017-0.002 0.036-0.003 0.055-0.003 0.124 0 0.237 0.049 0.32 0.128l0.25-0.625zM28.25 27.875c0.010 0.423 0.149 0.812 0.379 1.131 0.246 0.369 0.621 0.369 1.121 0.369 0.011 0 0.023 0 0.036 0 0.372 0 0.711-0.143 0.965-0.376l-0.251-0.499c-0.206 0.156-0.467 0.25-0.75 0.25-0.483 0-0.875-0.392-0.875-0.875s0.392-0.875 0.875-0.875c0.281 0.028 0.535 0.117 0.758 0.254l0.242-0.504c-0.253-0.233-0.592-0.375-0.964-0.375-0.013 0-0.025 0-0.038 0-0.034-0.003-0.075-0.005-0.116-0.005-0.387 0-0.74 0.144-1.008 0.381-0.224 0.311-0.363 0.7-0.373 1.121zM33.375 29.375h0.625v-2.75h-0.625v0.375c-0.209-0.231-0.51-0.375-0.844-0.375-0.011 0-0.021 0-0.032 0-0.009-0-0.022-0-0.035-0-0.372 0-0.711 0.143-0.965 0.376-0.235 0.266-0.379 0.619-0.379 1.006 0 0.042 0.002 0.083 0.005 0.124-0.001 0.007-0.001 0.022-0.001 0.036 0 0.411 0.141 0.788 0.378 1.087 0.189 0.236 0.481 0.389 0.81 0.389 0.066 0 0.131-0.006 0.194-0.018 0.003 0.001 0.013 0.001 0.024 0.001 0.335 0 0.635-0.144 0.844-0.374zM36.125 26.375c-0.029-0.004-0.063-0.006-0.097-0.006-0.279 0-0.522 0.152-0.651 0.378l-0.002-0.371h-0.625v2.875h0.625v-1.625c0-0.5 0.25-0.75 0.625-0.75 0.017-0.002 0.036-0.003 0.055-0.003 0.124 0 0.237 0.049 0.32 0.128l0.25-0.625zM39 29.375h0.625v-3.875h-0.625v1.5c-0.209-0.231-0.51-0.375-0.844-0.375-0.011 0-0.021 0-0.032 0-0.758-0-1.373 0.616-1.373 1.375s0.616 1.375 1.375 1.375c0.031 0.003 0.066 0.005 0.102 0.005 0.314 0 0.593-0.148 0.771-0.378zM40.625 28.875v0c-0.125 0-0.125 0-0.25 0.125-0.069 0-0.125 0.056-0.125 0.125v0.25l0.25 0.25h0.25l0.125-0.125v-0.25l-0.125-0.125c0-0.25 0-0.25-0.125-0.25zM48.25 2.625v26.75c0.001 0.019 0.001 0.041 0.001 0.063 0 1.415-1.147 2.563-2.563 2.563-0.022 0-0.044-0-0.067-0.001l-42.997 0c-0.026 0.001-0.057 0.002-0.088 0.002-0.7 0-1.333-0.288-1.786-0.751-0.463-0.388-0.755-0.966-0.755-1.613 0-0.048 0.002-0.096 0.005-0.144l-0-26.869c-0.001-0.026-0.002-0.057-0.002-0.088 0-0.7 0.288-1.333 0.751-1.786 0.5-0.443 1.152-0.723 1.87-0.75l42.881-0c0.026-0.001 0.057-0.002 0.088-0.002 0.7 0 1.333 0.288 1.786 0.751 0.522 0.464 0.854 1.129 0.875 1.872z"></path>
		</symbol>
		<symbol id="ico-cc-paypal" viewBox="0 0 48 32">
			<title>cc-paypal</title>
			<path
				fill="#adbbf3"
				d="M15.625 16.25c0.005 0.044 0.008 0.096 0.008 0.148 0 0.44-0.196 0.834-0.506 1.1-0.294 0.311-0.708 0.504-1.166 0.504-0.030 0-0.060-0.001-0.090-0.003-0.007 0-0.019 0.001-0.032 0.001-0.372 0-0.711-0.143-0.965-0.376-0.293-0.082-0.505-0.347-0.505-0.662 0-0.031 0.002-0.061 0.006-0.090-0.005-0.041-0.008-0.092-0.008-0.145 0-0.44 0.196-0.834 0.506-1.1 0.294-0.311 0.708-0.504 1.166-0.504 0.030 0 0.060 0.001 0.090 0.002 0.007-0 0.019-0.001 0.032-0.001 0.372 0 0.711 0.143 0.965 0.376 0.374-0.001 0.499 0.374 0.499 0.749zM32 13.125c0.010 0.062 0.016 0.134 0.016 0.207 0 0.424-0.201 0.801-0.513 1.041-0.33 0.242-0.741 0.386-1.186 0.386-0.068 0-0.135-0.003-0.201-0.010l-0.617 0.001 0.375-2.25c0.012-0.133 0.117-0.238 0.249-0.25l1.126-0c0.426 0.057 0.75 0.418 0.75 0.855 0 0.007-0 0.014-0 0.021zM39.375 16.25c0 0.011 0 0.025 0 0.038 0 0.946-0.767 1.712-1.712 1.712-0.013 0-0.027-0-0.040-0-0.009 0-0.021 0-0.034 0-0.372 0-0.711-0.143-0.965-0.376-0.23-0.208-0.374-0.509-0.374-0.844 0-0.011 0-0.021 0-0.032-0.005-0.043-0.008-0.094-0.008-0.146 0-0.44 0.196-0.834 0.506-1.1 0.294-0.311 0.708-0.504 1.166-0.504 0.030 0 0.060 0.001 0.090 0.002 0.007-0 0.019-0.001 0.032-0.001 0.372 0 0.711 0.143 0.965 0.376 0.231 0.179 0.379 0.458 0.379 0.772 0 0.036-0.002 0.072-0.006 0.107zM10.75 12.75c0.007-0.061 0.011-0.133 0.011-0.205 0-0.627-0.296-1.185-0.756-1.542-0.517-0.4-1.169-0.639-1.876-0.639-0.089 0-0.177 0.004-0.264 0.011l-3.364-0.001c-0.25 0-0.375 0.125-0.5 0.375l-1.375 8.5c0 0.125 0 0.125 0.125 0.25s0.125 0.125 0.25 0.125h1.625c0.25 0 0.375-0.125 0.5-0.375l0.375-2.25c0.014-0.099 0.059-0.185 0.125-0.25 0.083-0.079 0.196-0.128 0.32-0.128 0.019 0 0.039 0.001 0.058 0.004l0.998-0c0.044 0.002 0.095 0.003 0.147 0.003 1.043 0 1.998-0.379 2.734-1.007 0.539-0.803 0.865-1.798 0.869-2.869zM17.25 19.25l0.875-5.5c0-0.125 0-0.125-0.125-0.25s-0.125-0.125-0.25-0.125h-1.5q-0.375 0-0.375 0.75c-0.432-0.539-1.090-0.881-1.829-0.881-0.060 0-0.12 0.002-0.179 0.007 0.005-0.001 0.001-0.001-0.003-0.001-1.029 0-1.957 0.431-2.613 1.123-0.623 0.629-1.006 1.493-1.006 2.446 0 0.064 0.002 0.127 0.005 0.19-0.003 0.037-0.005 0.091-0.005 0.144 0 0.719 0.288 1.371 0.755 1.847 0.454 0.464 1.087 0.751 1.786 0.751 0.031 0 0.062-0.001 0.093-0.002 0.455-0.038 0.88-0.127 1.284-0.261 0.352-0.13 0.685-0.343 0.962-0.614-0 0.125-0.125 0.375-0.125 0.5s0.125 0.375 0.25 0.375h1.5c0.224-0.1 0.4-0.276 0.498-0.494zM26.5 13.75c0-0.125 0-0.125-0.125-0.25s-0.125-0.125-0.25-0.125h-1.625c-0.125 0-0.25 0.125-0.375 0.25l-2.25 3.25-0.75-3.125c-0.125-0.25-0.25-0.375-0.5-0.375h-1.625c-0.125 0-0.125 0-0.25 0.125s-0.125 0.125-0.125 0.25 0.125 0.5 0.375 1.25 0.625 1.625 0.875 2.625c0.217 0.433 0.39 0.935 0.494 1.462-0.606 0.773-1.184 1.59-1.696 2.451-0.036 0.22 0.069 0.325 0.201 0.337l1.626 0c0.125 0 0.25-0.125 0.375-0.25l5.375-7.75c0.25 0 0.25-0.125 0.25-0.125zM34.5 12.75c0.007-0.061 0.011-0.133 0.011-0.205 0-0.627-0.296-1.185-0.756-1.542-0.53-0.324-1.166-0.515-1.847-0.515-0.1 0-0.198 0.004-0.296 0.012l-3.362-0.001c-0.25 0-0.375 0.125-0.5 0.375l-1.375 8.5c0 0.125 0 0.125 0.125 0.25s0.125 0.125 0.25 0.125h1.75c0.125 0 0.25-0.125 0.375-0.25l0.375-2.375c0.014-0.099 0.059-0.185 0.125-0.25 0.083-0.079 0.196-0.128 0.32-0.128 0.019 0 0.039 0.001 0.058 0.004l0.998-0c0.044 0.002 0.095 0.003 0.147 0.003 1.043 0 1.998-0.379 2.734-1.007 0.523-0.851 0.845-1.883 0.869-2.989zM41 19.25l0.875-5.5c0-0.125 0-0.125-0.125-0.25s-0.125-0.125-0.25-0.125h-1.5q-0.375 0-0.375 0.75c-0.432-0.539-1.090-0.881-1.828-0.881-0.060 0-0.12 0.002-0.179 0.007 0.005-0.001 0.001-0.001-0.003-0.001-1.029 0-1.957 0.431-2.613 1.123-0.623 0.629-1.006 1.493-1.006 2.446 0 0.064 0.002 0.127 0.005 0.19-0.003 0.037-0.005 0.091-0.005 0.144 0 0.719 0.288 1.371 0.755 1.847 0.454 0.464 1.087 0.751 1.786 0.751 0.031 0 0.062-0.001 0.093-0.002 0.451-0.025 0.877-0.114 1.276-0.26 0.36-0.131 0.693-0.344 0.97-0.616l-0 0.5c0 0.25 0.125 0.375 0.25 0.375h1.5c0.152-0.14 0.277-0.306 0.37-0.49zM45.5 10.625v0c0-0.25-0.125-0.375-0.25-0.375h-1.5c-0.133 0.012-0.238 0.117-0.25 0.249l-1.375 8.751c0 0.125 0 0.125 0.125 0.25s0.125 0.125 0.25 0.125h1.25c0.25 0 0.375-0.125 0.5-0.375zM8.25 13.5c-0.066 0.392-0.245 0.734-0.501 1.001-0.276 0.169-0.611 0.27-0.97 0.27-0.099 0-0.195-0.008-0.29-0.022l-0.739 0.001 0.375-2.25c0.012-0.133 0.117-0.238 0.249-0.25l0.376-0c0.007-0 0.015-0 0.023-0 0.443 0 0.865 0.092 1.248 0.258 0.23 0.117 0.23 0.492 0.23 0.992zM48.25 2.625v26.75c0.001 0.019 0.001 0.041 0.001 0.063 0 1.415-1.147 2.563-2.563 2.563-0.022 0-0.044-0-0.067-0.001l-42.997 0c-0.026 0.001-0.057 0.002-0.088 0.002-0.7 0-1.333-0.288-1.786-0.751-0.463-0.388-0.755-0.966-0.755-1.613 0-0.048 0.002-0.096 0.005-0.144l-0-26.869c-0.001-0.026-0.002-0.057-0.002-0.088 0-0.7 0.288-1.333 0.751-1.786 0.5-0.443 1.152-0.723 1.87-0.75l42.881-0c0.026-0.001 0.057-0.002 0.088-0.002 0.7 0 1.333 0.288 1.786 0.751 0.522 0.464 0.854 1.129 0.875 1.872z"></path>
		</symbol>
		<symbol id="ico-cc-visa" viewBox="0 0 48 32">
			<title>cc-visa</title>
			<path
				fill="#adbbf3"
				d="M41.375 18h-2.875c0.25-0.5 0.625-1.75 1.375-3.75l0.125-0.25c0.033-0.196 0.123-0.367 0.25-0.5 0.125-0.125 0.125-0.375 0.25-0.5l0.25 1.125zM11.125 16.625l-1.25-6.125c-0.053-0.646-0.591-1.151-1.246-1.151-0.090 0-0.178 0.009-0.262 0.028l-5.617-0.001v0.25c4.25 1.125 7.125 3.5 8.375 7zM14.875 9.375l-3.375 9.125-0.375-1.875c-0.443-1.060-1.033-1.971-1.756-2.757-0.73-0.783-1.655-1.385-2.698-1.73l2.829 10.612h3.625l5.5-13.375zM17.75 22.75h3.5l2.125-13.375h-3.375zM33.875 9.75c-0.924-0.38-1.996-0.608-3.118-0.625-0.116-0.007-0.244-0.010-0.374-0.010-1.459 0-2.808 0.473-3.902 1.273-0.97 0.672-1.61 1.801-1.61 3.079 0 0.056 0.001 0.111 0.004 0.166-0 1.367 1 2.617 3 3.617 0.525 0.273 0.975 0.563 1.395 0.89 0.211 0.194 0.355 0.495 0.355 0.829 0 0.011-0 0.021-0 0.032-0.030 0.427-0.271 0.793-0.619 0.995-0.396 0.241-0.869 0.381-1.374 0.381-0.046 0-0.093-0.001-0.139-0.004-0.027 0.001-0.067 0.001-0.107 0.001-1.144 0-2.224-0.278-3.175-0.769l-0.461-0.232-0.5 3c1.057 0.477 2.292 0.755 3.591 0.755 0.1 0 0.199-0.002 0.298-0.005 0.118 0.010 0.272 0.015 0.427 0.015 1.476 0 2.842-0.474 3.953-1.278 0.972-0.73 1.608-1.904 1.608-3.226 0-0.048-0.001-0.095-0.002-0.143 0-1.493-1-2.743-2.875-3.618-0.625-0.375-1.125-0.625-1.5-0.875s-0.5-0.5-0.5-0.75c-0-0.008-0-0.016-0-0.025 0-0.329 0.205-0.611 0.495-0.723 0.396-0.239 0.868-0.38 1.373-0.38 0.046 0 0.093 0.001 0.139 0.004 0.070-0.004 0.16-0.006 0.25-0.006 0.858 0 1.672 0.186 2.405 0.521l0.339 0.11zM42.75 9.375h-2.75c-0.034-0.002-0.074-0.003-0.115-0.003-0.777 0-1.446 0.457-1.755 1.117l-5.13 12.262h3.625l0.75-2h4.375c0.185 0.584 0.318 1.265 0.373 1.968l3.252 0.032zM48.25 2.625v26.75c0.001 0.019 0.001 0.041 0.001 0.063 0 1.415-1.147 2.563-2.563 2.563-0.022 0-0.044-0-0.067-0.001l-42.997 0c-0.026 0.001-0.057 0.002-0.088 0.002-0.7 0-1.333-0.288-1.786-0.751-0.463-0.388-0.755-0.966-0.755-1.613 0-0.048 0.002-0.096 0.005-0.144l-0-26.869c-0.001-0.026-0.002-0.057-0.002-0.088 0-0.7 0.288-1.333 0.751-1.786 0.5-0.443 1.152-0.723 1.87-0.75l42.881-0c0.026-0.001 0.057-0.002 0.088-0.002 0.7 0 1.333 0.288 1.786 0.751 0.522 0.464 0.854 1.129 0.875 1.872z"></path>
		</symbol>
		<symbol id="ico-document" viewBox="0 0 24 32">
			<title>document</title>
			<path
				fill="#dee0ea"
				d="M18.4 6.267c-0.013 0.001-0.029 0.001-0.044 0.001-0.535 0-0.974-0.408-1.022-0.93l-0-5.337h-16.267c-0.013-0.001-0.029-0.001-0.044-0.001-0.534 0-0.974 0.408-1.022 0.93l-0 30.004c0.040 0.572 0.494 1.027 1.063 1.066l22.004 0c0.008 0 0.018 0 0.027 0 0.501 0 0.907-0.406 0.907-0.907 0-0.010-0-0.019-0-0.028l0-24.799zM18.4 23.467h-13.2v-2h13.2v2zM18.4 19.2h-13.2v-2h13.2v2zM18.4 14.933h-13.2v-2h13.2v2zM18.4 10.933h-13.2v-2h13.2v2zM23.6 4.267h-4.267v-4z"></path>
		</symbol>
		<symbol id="ico-search" viewBox="0 0 32 32">
			<title>search</title>
			<path
				fill="#fff"
				d="M23.567 21.698c1.867-2.271 2.999-5.209 2.999-8.41 0-7.342-5.952-13.293-13.293-13.293s-13.293 5.952-13.293 13.293c0 3.673 1.49 6.999 3.898 9.405 2.385 2.384 5.68 3.859 9.319 3.859 0.024 0 0.048-0 0.072-0-0.004 0-0.003 0-0.003 0 3.206 0 6.15-1.125 8.457-3.003l8.010 8.054c0.23 0.243 0.555 0.395 0.914 0.398 0.008 0 0.017 0 0.026 0 0.353 0 0.67-0.153 0.889-0.397 0.241-0.24 0.389-0.571 0.389-0.936s-0.148-0.696-0.388-0.935zM5.748 20.783c-1.924-1.924-3.114-4.582-3.114-7.518 0-5.872 4.76-10.632 10.632-10.632s10.632 4.76 10.632 10.632c0 2.936-1.19 5.594-3.114 7.518-1.927 1.917-4.584 3.102-7.518 3.102s-5.591-1.185-7.518-3.103z"></path>
		</symbol>
		<symbol id="ico-search--light" viewBox="0 0 32 32">
			<title>search--light</title>
			<path
				fill="#fff"
				d="M11.793 0c-0.006 0-0.012 0-0.019 0-6.513 0-11.793 5.28-11.793 11.793s5.28 11.793 11.793 11.793c3.113 0 5.945-1.207 8.053-3.178l11.457 11.47c0.077 0.079 0.184 0.127 0.303 0.127 0.234 0 0.424-0.19 0.424-0.424 0-0.116-0.046-0.22-0.121-0.297l-11.464-11.464c1.954-2.099 3.154-4.923 3.154-8.027 0-6.511-5.277-11.79-11.788-11.793zM11.793 0.842c6.048 0 10.95 4.903 10.95 10.95s-4.903 10.95-10.95 10.95c-6.048 0-10.95-4.903-10.95-10.95s4.903-10.95 10.95-10.95z"></path>
		</symbol>
		<symbol id="ico-serpantino" viewBox="0 0 77 32">
			<title>serpantino</title>
			<path fill="#4862cc" d="M2.706 18.725l69.171 2.915 5.22-16.422-77.097-5.217 2.706 18.725z"></path>
			<path fill="#364999" d="M2.706 18.725l31.712 7.826 1.112-6.58-32.824-1.246z"></path>
			<path fill="#4862cc" d="M34.418 26.551l-25.418-0.917 0.894-5.113 24.524 6.030z"></path>
			<path fill="#364999" d="M9 25.634l14.972 4.846 0.97-4.27-15.942-0.576z"></path>
			<path fill="#4862cc" d="M23.972 30.48l-11.618 1.52 1.474-4.802 10.144 3.282z"></path>
		</symbol>
		<symbol id="ico-burger" viewBox="0 0 48 32">
			<title>burger</title>
			<path fill="#fff" d="M0 0h48v5.376h-48zM0 18.624v-5.248h48v5.248zM0 32v-5.376h48v5.376z"></path>
		</symbol>
		<symbol id="ico-facebook" viewBox="0 0 17 32">
			<title>facebook</title>
			<path fill="#fff" d="M16.631 0.229v5.047h-2.982c-0.803-0.115-1.606 0.115-2.179 0.688s-0.688 1.376-0.688 2.065v3.67h5.62l-0.688 5.735h-4.932v14.566h-5.849v-14.681h-4.932v-5.735h4.932v-4.129c-0.115-1.95 0.573-4.014 1.95-5.505 1.491-1.376 3.326-2.065 5.276-1.95 1.491 0 2.982 0 4.473 0.229z"></path>
		</symbol>
		<symbol id="ico-close" viewBox="0 0 32 32">
			<title>close</title>
			<path d="M31.818 3.273l-12.727 12.727 12.727 12.727-3.273 3.273-12.727-12.727-12.727 12.727-3.091-3.455 12.727-12.727-12.727-12.727 3.273-3.091 12.727 12.727 12.727-12.727z"></path>
		</symbol>
		<symbol id="ico-angle-double-right" viewBox="0 0 31 32">
			<title>angle-double-right</title>
			<path d="M18.476 16c-0.051 0.298-0.187 0.559-0.381 0.762l-14.857 14.857c-0.179 0.228-0.453 0.375-0.761 0.381-0.382 0-0.382-0.19-0.572-0.571l-1.524-1.524c-0.228-0.179-0.375-0.453-0.381-0.761 0.051-0.299 0.187-0.56 0.381-0.763l12.571-12.571-12.571-12.381c-0.194-0.203-0.33-0.463-0.38-0.753 0.050-0.307 0.186-0.567 0.38-0.771l1.523-1.523c0.176-0.232 0.451-0.381 0.762-0.381s0.586 0.149 0.76 0.379l14.859 14.86c0.19 0.19 0.19 0.381 0.19 0.762zM30.857 16c-0.051 0.298-0.187 0.559-0.381 0.762l-14.857 14.857c-0.179 0.228-0.453 0.375-0.761 0.381-0.299-0.051-0.56-0.187-0.763-0.381l-1.523-1.523c-0.228-0.179-0.375-0.453-0.381-0.761 0.051-0.299 0.187-0.56 0.381-0.763l12.571-12.571-12.571-12.571c-0.194-0.203-0.33-0.463-0.38-0.753 0.050-0.307 0.186-0.567 0.38-0.771l1.523-1.523c0.203-0.194 0.463-0.33 0.753-0.38 0.318 0.005 0.591 0.152 0.769 0.378l14.859 14.859c0.228 0.179 0.375 0.453 0.381 0.761z"></path>
		</symbol>
		<symbol id="ico-angle-double-left" viewBox="0 0 31 32">
			<title>angle-double-left</title>
			<path d="M18.587 29.317c-0.051 0.3-0.188 0.562-0.384 0.767l-1.532 1.532c-0.18 0.229-0.456 0.377-0.765 0.383-0.301-0.051-0.563-0.188-0.768-0.384l-14.754-14.946c-0.192-0.192-0.383-0.383-0.383-0.575 0.051-0.3 0.188-0.562 0.384-0.767l14.946-14.946c0.18-0.229 0.456-0.377 0.765-0.383 0.301 0.051 0.563 0.188 0.768 0.384l1.532 1.532c0.229 0.18 0.377 0.455 0.383 0.765-0.006 0.312-0.154 0.587-0.381 0.766l-12.649 12.648 12.647 12.647c0.192 0 0.192 0.383 0.192 0.575zM31.042 29.317c-0.051 0.3-0.188 0.562-0.384 0.767l-1.532 1.532c-0.18 0.229-0.456 0.377-0.765 0.383-0.301-0.051-0.563-0.188-0.768-0.384l-14.946-14.946c-0.192-0.192-0.383-0.383-0.383-0.575 0.051-0.3 0.188-0.562 0.384-0.767l14.946-14.946c0.18-0.229 0.456-0.377 0.765-0.383 0.301 0.051 0.563 0.188 0.768 0.384l1.532 1.532c0.229 0.18 0.377 0.455 0.383 0.765-0.006 0.312-0.154 0.587-0.381 0.766l-12.649 12.648 12.647 12.647c0.192 0 0.383 0.383 0.383 0.575z"></path>
		</symbol>
		<symbol id="ico-angle-left" viewBox="0 0 19 32">
			<title>angle-left</title>
			<path d="M18.476 2.667c-0.051 0.298-0.187 0.559-0.381 0.762l-12.38 12.571 12.571 12.571c0.228 0.179 0.375 0.453 0.381 0.761-0.051 0.299-0.187 0.56-0.381 0.763l-1.523 1.523c-0.179 0.228-0.453 0.375-0.761 0.381-0.299-0.051-0.56-0.187-0.763-0.381l-14.857-15.047c-0.19-0.19-0.381-0.381-0.381-0.571 0.051-0.298 0.187-0.559 0.381-0.762l14.857-14.857c0.179-0.228 0.453-0.375 0.761-0.381 0.299 0.051 0.56 0.187 0.763 0.381l1.523 1.523c0.19 0.19 0.19 0.381 0.19 0.762z"></path>
		</symbol>
		<symbol id="ico-angle-right" viewBox="0 0 18 32">
			<title>angle-right</title>
			<path d="M18.476 16c-0.051 0.298-0.187 0.559-0.381 0.762l-14.857 14.857c-0.179 0.228-0.453 0.375-0.761 0.381-0.382 0-0.382-0.19-0.572-0.571l-1.524-1.524c-0.228-0.179-0.375-0.453-0.381-0.761 0.051-0.299 0.187-0.56 0.381-0.763l12.571-12.571-12.571-12.381c-0.194-0.203-0.33-0.463-0.38-0.753 0.050-0.307 0.186-0.567 0.38-0.771l1.523-1.523c0.179-0.228 0.453-0.375 0.761-0.381 0.31 0.006 0.584 0.153 0.761 0.379l14.859 14.859c0.19 0.19 0.19 0.381 0.19 0.762z"></path>
		</symbol>
	</defs>
</svg>
